HIERARCHY
ROOT pelvis
{
  OFFSET 0 100 0
  CHANNELS 6 Xposition Yposition Zposition Zrotation Xrotation Yrotation
  JOINT pelvis_right_femur
  {
    OFFSET -10.78128 -3.44521 -0.5502486
    CHANNELS 3 Zrotation Xrotation Yrotation
    JOINT right_femur_tibia
    {
      OFFSET -0.8047443 -44.0398 -0.1307829
      CHANNELS 3 Zrotation Xrotation Yrotation
      JOINT right_tibia_foot
      {
        OFFSET 3.006224 -47.83518 -5
        CHANNELS 3 Zrotation Xrotation Yrotation
        End Site
        {
          OFFSET 0 -5 15
        }
      }
    }
  }
  JOINT pelvis_left_femur
  {
    OFFSET 10.78128 -3.44521 -0.5502486
    CHANNELS 3 Zrotation Xrotation Yrotation
    JOINT left_femur_tibia
    {
      OFFSET 0.8047443 -44.0398 -0.1307829
      CHANNELS 3 Zrotation Xrotation Yrotation
      JOINT left_tibia_foot
      {
        OFFSET -4.370144 -48.10324 -4.275266
        CHANNELS 3 Zrotation Xrotation Yrotation
        End Site
        {
          OFFSET 0 -5 15
        }
      }
    }
  }
  JOINT pelvis_spine1
  {
    OFFSET 0 6.468898 -3.129235
    CHANNELS 3 Zrotation Xrotation Yrotation
    JOINT spine1
    {
      OFFSET 0 23.15396 4.99043
      CHANNELS 3 Zrotation Xrotation Yrotation
      JOINT spine2
      {
        OFFSET 0 20.79997 -5.064912
        CHANNELS 3 Zrotation Xrotation Yrotation
        JOINT neck
        {
          OFFSET 0 14.38658 9.616178
          CHANNELS 3 Zrotation Xrotation Yrotation
          End Site
          {
            OFFSET 0 20 0
          }
        }
      }
      JOINT right_manubrium
      {
        OFFSET -5.722621 16.35077 3.967754
        CHANNELS 3 Zrotation Xrotation Yrotation
        JOINT right_clavicle
        {
          OFFSET -13.16364 1.694482 -4.693211
          CHANNELS 3 Zrotation Xrotation Yrotation
          JOINT right_humerus
          {
            OFFSET -28.5034 -0.3100689 -2.792744
            CHANNELS 3 Zrotation Xrotation Yrotation
            JOINT right_radius
            {
              OFFSET -25.15693 0.02248979 -1.271978
              CHANNELS 3 Zrotation Xrotation Yrotation
              End Site
              {
                OFFSET -15 0 0
              }
            }
          }
        }
      }
      JOINT left_manubrium
      {
        OFFSET 5.722621 16.35077 3.967754
        CHANNELS 3 Zrotation Xrotation Yrotation
        JOINT left_clavicle
        {
          OFFSET 13.16364 1.694482 -4.693211
          CHANNELS 3 Zrotation Xrotation Yrotation
          JOINT left_humerus
          {
            OFFSET 29.39168 -1.063119 -2.237045
            CHANNELS 3 Zrotation Xrotation Yrotation
            JOINT left_radius
            {
              OFFSET 24.59957 -0.9528479 0.9047498
              CHANNELS 3 Zrotation Xrotation Yrotation
              End Site
              {
                OFFSET 15 -0 -0
              }
            }
          }
        }
      }
    }
  }
}
MOTION
Frames: 7
Frame Time: 0.0416666666667
0 103.5113 0 0.5967582 -0.5478288 -0.02915518 4.092693 -19.3771 9.319054 -0 36.59334 -0 -5.937586 -14.82421 -2.50541 -6.909163 10.15674 -22.46871 -0 3.961754 -0 11.97512 -15.54032 27.82662 -3.166462 -3.466196 4.844037 2.247469 10.12942 -7.34525 1.587963 21.96746 6.825703 2.817302 -25.12895 10.12857 5.219685 -20.42478 11.61507 86.59737 34.19957 -18.69386 -0 0 15.82266 -7.230306 7.862967 4.324371 6.459099 -20.26731 -1.401552 -92.40346 23.1454 20.39224 0 0 -16.39101 14.38972 16.03088 -1.914129
0.30004 103.1717 1.859102 0.421897 -0.08547869 -0.0154912 4.43583 -20.88057 9.008237 -0 34.93084 -0 -6.036733 -14.03311 -2.368969 -6.800331 10.38887 -22.05806 -0 4.539033 -0 11.54078 -16.19509 27.12963 -3.149439 -3.213705 4.712847 2.443082 10.0067 -7.473582 1.538511 21.77491 6.930095 2.922831 -25.41469 10.11149 5.312867 -20.19101 11.63654 86.56465 34.46197 -18.90541 -0 0 15.48688 -7.260361 8.009452 4.456254 6.5081 -20.3834 -1.375199 -92.22245 23.1713 20.14796 0 0 -16.904 14.05955 15.78969 -1.599216
0.5687697 102.649 4.151993 -0.04493877 0.2261726 0.1323818 4.948685 -24.36777 7.254787 -0 30.81396 -0 -7.005915 -11.37248 -1.909749 -6.426118 11.37975 -20.61733 -0 5.360835 -0 10.48841 -17.81678 25.31608 -2.884434 -2.415613 4.099343 2.727702 9.719725 -7.534528 1.513276 21.79079 7.044232 2.977038 -25.78131 10.10583 4.631274 -19.62631 11.56421 87.22006 33.3228 -19.25496 -0 0 13.95226 -8.00055 7.964807 4.921814 6.754795 -20.92771 -1.633169 -91.37632 22.59869 18.65989 0 0 -18.01936 14.38145 15.64305 -2.276804
0.8395019 102.1382 6.702176 -0.2570533 0.9602206 0.3495693 5.437695 -26.17854 7.059441 -0 28.56811 -0 -6.905416 -10.51266 -1.715468 -6.328265 11.64052 -20.04917 -0 6.409076 -0 10.05131 -18.40107 24.50829 -2.844371 -2.242024 4.053744 2.965445 9.609339 -7.727311 1.467114 21.42943 7.162452 3.097832 -26.15986 10.10931 4.783437 -19.34774 11.57828 87.17892 33.78504 -19.61766 -0 0 13.59471 -7.971056 8.224948 4.994496 6.871457 -21.10902 -1.482486 -91.01412 22.31343 18.26672 0 0 -18.86878 14.31385 15.09157 -2.25938
1.12838 101.6848 9.576395 -0.5091134 2.049967 0.6549927 6.128962 -28.20951 7.141418 -0 26.06205 -0 -6.568921 -9.700238 -1.500999 -6.263412 11.83328 -19.48183 -0 7.975776 -0 9.565378 -18.94218 23.6226 -2.834709 -2.139314 4.106272 3.274361 9.472147 -7.99719 1.411725 20.87222 7.319922 3.273547 -26.68527 10.13218 5.152564 -19.01285 11.59505 86.98347 34.74822 -20.08312 -0 0 13.34843 -7.734748 8.613983 4.992135 6.993383 -21.23951 -1.168761 -90.65404 22.00729 17.99272 0 0 -19.88127 14.15277 14.26554 -2.104899
1.459792 101.3501 12.70211 -0.7094544 3.300579 1.033381 6.87038 -29.61853 7.810313 -0 24.48973 -0 -5.926606 -9.449037 -1.372369 -6.297578 11.67557 -19.27164 -0 9.668288 -0 9.286459 -19.13199 23.08209 -2.919567 -2.200558 4.336785 3.576293 9.360291 -8.283192 1.362358 20.19823 7.480292 3.482548 -27.25879 10.18155 5.84064 -18.75822 11.62738 86.4937 36.34417 -20.43714 -0 0 13.54634 -7.161553 9.08109 4.858384 7.037833 -21.15811 -0.6882035 -90.55687 21.88936 18.21746 0 0 -20.55901 13.8096 13.32006 -1.640122
1.827378 101.0683 16.21293 -1.027369 4.456679 1.515613 7.629803 -31.52653 7.94561 -0 22.06437 -0 -5.608311 -8.435957 -1.19504 -6.237526 11.92295 -18.72933 -0 11.6375 -0 8.397646 -19.73151 21.98144 -2.929066 -2.072348 4.344055 3.911281 9.116406 -8.541675 1.319739 19.63104 7.651642 3.703512 -27.81114 10.19658 6.261521 -18.31494 11.59359 86.25644 37.43229 -20.8919 -0 0 13.27943 -6.887674 9.456934 4.87492 7.088041 -21.14521 -0.3506607 -90.35345 21.96741 18.12674 0 0 -21.40502 13.10269 12.52536 -0.8648526
